# xmcd
# 
# Track frame offsets:
#     150
#     14720
#     35327
#     57469
#     83226
#     104603
#     116050
#     141254
#     178246
#     197618
#     219953
#     240838
#     250563
#     265672
# 
# Disc length: 3761
# 
# Revision: 0
# Processed by: cddbd v1.5.2PL0 Copyright (c) Steve Scherf et al.
# Submitted via: fre:ac v1.0.17
# 
DISCID=c20eaf0e
DTITLE=Jean Jacques Milteau - Live
DYEAR=1995
DGENRE=Blues
TTITLE0=Sweet home chicago
TTITLE1=Get off of my life woman
TTITLE2=Further on up the road
TTITLE3=I can't hold out
TTITLE4=Rollin' and tumblin'
TTITLE5=Magnolia
TTITLE6=Key to the highway
TTITLE7=Lonely crowd
TTITLE8=Seacruise
TTITLE9=BB kong
TTITLE10=I've got to go
TTITLE11=Lonesome train
TTITLE12=Robert Johnson
TTITLE13=Don't you mess with me
EXTD=YEAR: 1998 ID3G: 0
EXTT0=
EXTT1=
EXTT2=
EXTT3=
EXTT4=
EXTT5=
EXTT6=
EXTT7=
EXTT8=
EXTT9=
EXTT10=
EXTT11=
EXTT12=
EXTT13=
PLAYORDER=
